<?xml version="1.0" standalone="no"?>
<!DOCTYPE svg PUBLIC "-//W3C//DTD SVG 20010904//EN"
 "http://www.w3.org/TR/2001/REC-SVG-20010904/DTD/svg10.dtd">
<svg version="1.0" xmlns="http://www.w3.org/2000/svg"
 width="700.000000pt" height="700.000000pt" viewBox="0 0 700.000000 700.000000"
 preserveAspectRatio="xMidYMid meet">
<metadata>
Created by potrace 1.11, written by Peter Selinger 2001-2013
</metadata>
<g transform="translate(0.000000,700.000000) scale(0.100000,-0.100000)"
fill="#000000" stroke="none">
<path d="M2 3498 l3 -3503 2 3497 3 3498 3498 3 3497 2 -3502 3 -3503 2 2
-3502z"/>
<path d="M60 3470 l0 -3470 3470 0 3470 0 0 3470 0 3470 -3470 0 -3470 0 0
-3470z m1270 928 l1 -883 126 130 c357 368 885 1008 1302 1578 l42 57 305 0
305 0 -78 -112 c-342 -496 -830 -1100 -1280 -1585 -73 -79 -133 -147 -133
-152 0 -4 28 -32 63 -62 590 -508 1173 -1243 1472 -1854 40 -82 77 -162 80
-177 l7 -28 -295 0 -295 0 -43 77 c-343 629 -763 1159 -1252 1579 -103 88
-308 244 -321 244 -3 0 -6 -427 -6 -950 l0 -950 -260 0 -260 0 0 1985 0 1985
260 0 260 0 0 -882z m5110 662 l0 -220 -860 0 -860 0 0 -620 0 -620 758 -2
757 -3 0 -220 0 -220 -757 -3 -758 -2 -2 -918 -3 -917 -262 -3 -263 -2 0 1985
0 1985 1125 0 1125 0 0 -220z"/>
</g>
</svg>
